<?xml version="1.0" encoding="utf-8"?>
<!-- Generator: Adobe Illustrator 24.3.0, SVG Export Plug-In . SVG Version: 6.00 Build 0)  -->
<svg version="1.1" id="Layer_1" xmlns="http://www.w3.org/2000/svg" xmlns:xlink="http://www.w3.org/1999/xlink" x="0px" y="0px"
	 viewBox="0 0 595.28 792" style="enable-background:new 0 0 595.28 792;" xml:space="preserve">
<style type="text/css">
	.st0{fill:#FFE018;}
	.st1{fill:#ED2A2E;}
	.st2{fill:#F3F1E7;}
	.st3{fill:#E2D3D4;}
	.st4{fill:#161616;}
	.st5{fill:#481718;}
</style>
<path class="st0" d="M411.99,585.53H190.75c-10.38,0-18.8-8.42-18.8-18.8V443.65c0-10.38,8.42-18.8,18.8-18.8h221.24
	c10.38,0,18.8,8.42,18.8,18.8v123.08C430.79,577.11,422.37,585.53,411.99,585.53z"/>
<g>
	<path class="st1" d="M486.81,413.86c-2.97,13.45-14.38,22.99-29.58,22.99c-1.61,0-3.2-0.11-4.79-0.33l0.04,0.33H146.09l0.05-0.4
		c-1.79,0.27-3.59,0.4-5.41,0.4c-19.84,0-33.4-16.02-30.29-35.78c8.12-51.58,31.86-98.59,63.98-133.49
		c16.94-18.4,36.21-33.44,56.76-44.01c21.17-10.9,43.69-17.05,66.41-17.24c76.43-0.65,151.54,67.12,180.51,157.41
		c3.84,11.94,6.87,24.28,8.99,36.92C487.86,405.32,487.73,409.77,486.81,413.86z"/>
	<ellipse class="st2" cx="171.95" cy="321.59" rx="18.39" ry="8.19"/>
	<ellipse class="st2" cx="185.23" cy="369.69" rx="31.67" ry="25.17"/>
	<path class="st2" d="M278.19,248.44c0,14.17-27.9,25.65-62.31,25.65c-15.92,0-30.45-2.46-41.46-6.51
		c16.94-18.4,36.21-33.44,56.76-44.01C258.19,226.37,278.19,236.45,278.19,248.44z"/>
	<ellipse class="st2" cx="278.19" cy="313.4" rx="35.75" ry="24.2"/>
	<path class="st2" d="M486.81,413.86c-6.49,2.82-14.19,4.45-22.46,4.45c-22.98,0-41.63-12.57-41.63-28.07s18.64-28.07,41.63-28.07
		c4.81,0,9.44,0.56,13.74,1.57c3.84,11.94,6.87,24.28,8.99,36.92C487.86,405.32,487.73,409.77,486.81,413.86z"/>
	<ellipse class="st2" cx="354.08" cy="369.69" rx="30.13" ry="20.77"/>
	<ellipse class="st2" cx="421.87" cy="310.8" rx="28.94" ry="18.99"/>
	<ellipse class="st2" cx="370.78" cy="245.44" rx="16.7" ry="8.4"/>
</g>
<circle class="st3" cx="243.79" cy="486.36" r="22.03"/>
<circle class="st3" cx="346.19" cy="486.36" r="22.03"/>
<circle class="st4" cx="251.05" cy="489.93" r="10.09"/>
<circle class="st4" cx="251.05" cy="489.93" r="10.09"/>
<circle class="st4" cx="346.19" cy="486.36" r="10.09"/>
<path class="st5" d="M337.83,544.59c0-4.82-3.02-8.72-6.74-8.72c-0.34,0-0.68,0.03-1.01,0.1v-0.1h-57.53v0.08
	c-0.29-0.05-0.59-0.08-0.89-0.08c-3.72,0-6.74,3.91-6.74,8.72C264.91,570.63,337.83,570.63,337.83,544.59z"/>
<ellipse class="st1" cx="301.37" cy="550" rx="16.4" ry="5.6"/>
<path class="st5" d="M286.96,554.2"/>
</svg>
